<?xml version="1.0" encoding="UTF-8"?>
<svg version="1.1" xmlns="http://www.w3.org/2000/svg" width="143" height="105">
<path d="M0 0 C47.19 0 94.38 0 143 0 C143 34.65 143 69.3 143 105 C95.81 105 48.62 105 0 105 C0 70.35 0 35.7 0 0 Z " fill="#FDFCFD" transform="translate(0,0)"/>
<path d="M0 0 C3.13921026 2.53235711 6.10959218 5.18809708 9 8 C8.51315022 12.1569481 6.42948892 13.71017157 3.25 16.25 C2.38890625 16.95640625 1.5278125 17.6628125 0.640625 18.390625 C-2.25917331 20.1579577 -3.67174751 20.5006602 -7 20 C-8.3565164 18.69026002 -9.68557638 17.35197858 -11 16 C-19.98310726 10.7598541 -28.77244196 10.04812826 -39 11 C-42.16113133 11.84541884 -44.40350537 13.0412409 -47 15 C-48.03125 15.66 -49.0625 16.32 -50.125 17 C-55.33015058 21.69035547 -58.45417869 28.48524157 -59.515625 35.3203125 C-59.81490162 44.36274168 -57.98905569 52.13624877 -51.75 58.875 C-45.14920713 64.89378747 -37.70561581 67.43016103 -28.86328125 67.3515625 C-20.60935706 66.33812024 -12.42700778 62.25421656 -7.1875 55.75 C-6.795625 55.1725 -6.40375 54.595 -6 54 C-1.77510398 54.53280216 0.54080716 55.87678199 3.8125 58.5625 C4.60269531 59.20316406 5.39289063 59.84382813 6.20703125 60.50390625 C6.79871094 60.99761719 7.39039062 61.49132812 8 62 C8 66.74964074 7.14055525 69.38246066 3.9375 72.9375 C-7.56376623 83.64413329 -21.09750547 86.47472985 -36.23828125 86.30078125 C-41.21339437 86.1099952 -45.28788079 84.87214366 -49.8515625 82.90625 C-52.80601096 81.66000992 -54.84111288 81.43842007 -58 82 C-60.08977674 82.98558942 -62.08572665 84.03907794 -64.0703125 85.22265625 C-66.4508873 86.18163274 -67.62272827 85.83996934 -70 85 C-69.835 83.865625 -69.67 82.73125 -69.5 81.5625 C-69.32605428 80.04248201 -69.15976525 78.52157381 -69 77 C-68.90847656 76.2678125 -68.81695312 75.535625 -68.72265625 74.78125 C-68.29707278 68.88536196 -70.00724655 65.99788909 -73.46875 61.328125 C-75.97758433 57.51367281 -76.979559 53.40921895 -78 49 C-78.226875 48.05125 -78.45375 47.1025 -78.6875 46.125 C-80.18721424 31.12785756 -76.82564939 18.6680108 -67.2578125 6.84765625 C-49.63213749 -12.20416259 -21.19465719 -14.22439047 0 0 Z " fill="#835CCB" transform="translate(103,13)"/>
<path d="M0 0 C2.12672321 0.98477191 4.1933496 2.04486919 6.26171875 3.14672852 C6.97263672 3.5115332 7.68355469 3.87633789 8.41601562 4.25219727 C11.42471315 5.80890812 14.24981568 7.38879314 17.07421875 9.27172852 C17.07421875 10.59172852 17.07421875 11.91172852 17.07421875 13.27172852 C14.06980151 14.98975751 11.04360971 16.66523622 8.01171875 18.33422852 C6.74038086 19.06222656 6.74038086 19.06222656 5.44335938 19.80493164 C1.49564999 21.95407073 -1.08821891 23.27172852 -5.64453125 23.27172852 C-11.13527031 21.59836042 -15.8535426 18.95032645 -20.92578125 16.27172852 C-20.92578125 21.88172852 -20.92578125 27.49172852 -20.92578125 33.27172852 C-21.91578125 33.27172852 -22.90578125 33.27172852 -23.92578125 33.27172852 C-25.00368893 21.5494825 -25.00368893 21.5494825 -24.86328125 17.27172852 C-24.92722392 14.20248027 -25.48417945 12.89487847 -26.92578125 10.27172852 C-22.44435558 7.39685167 -17.91490293 4.61660912 -13.30078125 1.95922852 C-12.42164062 1.4474707 -11.5425 0.93571289 -10.63671875 0.40844727 C-6.81292003 -1.19490349 -3.94091024 -1.49033155 0 0 Z " fill="#FB9336" transform="translate(77.92578125,31.728271484375)"/>
<path d="M0 0 C0.91628959 8.73868778 0.91628959 8.73868778 -1.265625 11.7421875 C-7.43519486 16.80363073 -13.27717237 16.71229964 -21 16 C-23.91179676 14.83950129 -25.77910559 13.22089441 -28 11 C-28.07205511 9.31391034 -28.08386068 7.62499341 -28.0625 5.9375 C-28.05347656 5.01839844 -28.04445312 4.09929688 -28.03515625 3.15234375 C-28.02355469 2.44207031 -28.01195312 1.73179688 -28 1 C-25.11830361 2.13521373 -22.34679247 3.32066551 -19.5625 4.6875 C-15.51391541 6.1790838 -14.07087553 6.30268017 -10 5 C-7.56714152 3.76123233 -5.20543137 2.44810263 -2.85546875 1.05859375 C-1 0 -1 0 0 0 Z " fill="#FB9235" transform="translate(88,51)"/>
<path d="M0 0 C-0.99 0.495 -0.99 0.495 -2 1 C-2.33 1.99 -2.66 2.98 -3 4 C-3.66 3.67 -4.32 3.34 -5 3 C-5.33 3.33 -5.66 3.66 -6 4 C-5.01 6.97 -4.02 9.94 -3 13 C1.71403788 12.52060632 5.66579301 12.03165952 10 10 C10.66 10.66 11.32 11.32 12 12 C10.44148245 12.82011312 8.87798284 13.63076213 7.3125 14.4375 C6.00732422 15.11619141 6.00732422 15.11619141 4.67578125 15.80859375 C-0.44385158 18.08813829 -5.27937958 18.13133308 -10.8125 18.0625 C-11.50537109 18.05798828 -12.19824219 18.05347656 -12.91210938 18.04882812 C-14.60811068 18.03713156 -16.30406703 18.01919924 -18 18 C-12.61607143 13.53571429 -12.61607143 13.53571429 -9 13 C-9.165 11.88625 -9.33 10.7725 -9.5 9.625 C-10 6 -10 6 -10 4 C-12.475 3.01 -12.475 3.01 -15 2 C-15 1.67 -15 1.34 -15 1 C-13.0641649 0.63684334 -11.12624752 0.28477269 -9.1875 -0.0625 C-8.10855469 -0.25972656 -7.02960938 -0.45695312 -5.91796875 -0.66015625 C-3 -1 -3 -1 0 0 Z " fill="#805AC7" transform="translate(84,81)"/>
<path d="M0 0 C0.598125 0.226875 1.19625 0.45375 1.8125 0.6875 C1.4825 1.3475 1.1525 2.0075 0.8125 2.6875 C1.09362064 4.69550456 1.42317967 6.69764051 1.8125 8.6875 C-0.1875 9.6875 -2.1875 10.6875 -4.1875 11.6875 C-5.115625 12.30625 -5.115625 12.30625 -6.0625 12.9375 C-9.52372255 14.15910796 -12.60285655 13.28494058 -16.1875 12.6875 C-14.8675 12.0275 -13.5475 11.3675 -12.1875 10.6875 C-12.1875 9.6975 -12.1875 8.7075 -12.1875 7.6875 C-13.8375 7.3575 -15.4875 7.0275 -17.1875 6.6875 C-17.1875 4.7075 -17.1875 2.7275 -17.1875 0.6875 C-14.8775 0.6875 -12.5675 0.6875 -10.1875 0.6875 C-9.8575 1.6775 -9.5275 2.6675 -9.1875 3.6875 C-8.5275 3.6875 -7.8675 3.6875 -7.1875 3.6875 C-6.8575 4.6775 -6.5275 5.6675 -6.1875 6.6875 C-6.084375 6.089375 -5.98125 5.49125 -5.875 4.875 C-4.83732915 1.57332002 -3.68219011 -0.52602716 0 0 Z " fill="#8764CB" transform="translate(74.1875,85.3125)"/>
<path d="M0 0 C0 0.66 0 1.32 0 2 C-0.66 2.33 -1.32 2.66 -2 3 C-2.69093896 5.57951874 -2.69093896 5.57951874 -3.125 8.5625 C-3.29257813 9.57441406 -3.46015625 10.58632813 -3.6328125 11.62890625 C-3.81457031 12.80259766 -3.81457031 12.80259766 -4 14 C-4.33 14 -4.66 14 -5 14 C-5.33 11.36 -5.66 8.72 -6 6 C-6.79664062 6.44472656 -7.59328125 6.88945313 -8.4140625 7.34765625 C-10.00347656 8.19650391 -10.00347656 8.19650391 -11.625 9.0625 C-13.19121094 9.91521484 -13.19121094 9.91521484 -14.7890625 10.78515625 C-18.50523981 12.19115521 -20.22019026 12.09736412 -24 11 C-26.5546875 9.80859375 -26.5546875 9.80859375 -28.875 8.4375 C-29.65617187 7.98246094 -30.43734375 7.52742188 -31.2421875 7.05859375 C-31.82226562 6.70925781 -32.40234375 6.35992187 -33 6 C-32.85904936 7.6254308 -32.71207913 9.25034051 -32.5625 10.875 C-32.44068359 12.23238281 -32.44068359 12.23238281 -32.31640625 13.6171875 C-32.13010715 16.01110861 -32.13010715 16.01110861 -31 18 C-32.65 18.33 -34.3 18.66 -36 19 C-36 13.39 -36 7.78 -36 2 C-31.69489392 3.07627652 -28.54639814 4.84293143 -24.73046875 7.0390625 C-19.83912466 8.76047973 -16.11617552 7.52592677 -11.54296875 5.37109375 C-10.43566406 4.73300781 -9.32835937 4.09492187 -8.1875 3.4375 C-2.17706237 0 -2.17706237 0 0 0 Z " fill="#FDE5C0" transform="translate(93,46)"/>
<path d="M0 0 C0.91628959 8.73868778 0.91628959 8.73868778 -1.265625 11.7421875 C-5.88418743 15.53120231 -8.7934975 16.11967159 -14.625 16.0625 C-15.81351562 16.05347656 -17.00203125 16.04445313 -18.2265625 16.03515625 C-19.14179687 16.02355469 -20.05703125 16.01195313 -21 16 C-21.33 15.34 -21.66 14.68 -22 14 C-20.35 14 -18.7 14 -17 14 C-16.67 12.68 -16.34 11.36 -16 10 C-7.96428571 7.72321429 -7.96428571 7.72321429 -4 9 C-3.34 7.68 -2.68 6.36 -2 5 C-2.96099609 5.34224609 -2.96099609 5.34224609 -3.94140625 5.69140625 C-9.47460979 7.53030996 -13.30441206 8.36198842 -19 7 C-16 6 -16 6 -13.375 5.75 C-9.35186266 4.85596948 -6.37999903 3.14261249 -2.85546875 1.05859375 C-1 0 -1 0 0 0 Z " fill="#F6943C" transform="translate(88,51)"/>
<path d="M0 0 C0.66 0 1.32 0 2 0 C2 0.66 2 1.32 2 2 C3.32 2.33 4.64 2.66 6 3 C5.34 3 4.68 3 4 3 C4 8.61 4 14.22 4 20 C3.01 20 2.02 20 1 20 C0.37577221 13.31184516 -0.12920865 6.71884955 0 0 Z " fill="#EC9B53" transform="translate(53,45)"/>
<path d="M0 0 C0 3.3 0 6.6 0 10 C-0.99 10.495 -0.99 10.495 -2 11 C-2 9.02 -2 7.04 -2 5 C-2.96099609 5.34224609 -2.96099609 5.34224609 -3.94140625 5.69140625 C-9.47460979 7.53030996 -13.30441206 8.36198842 -19 7 C-16 6 -16 6 -13.375 5.75 C-9.35186266 4.85596948 -6.37999903 3.14261249 -2.85546875 1.05859375 C-1 0 -1 0 0 0 Z " fill="#F0A15C" transform="translate(88,51)"/>
<path d="M0 0 C0.66 0.33 1.32 0.66 2 1 C2 7.27 2 13.54 2 20 C2.99 20.33 3.98 20.66 5 21 C3.35 21.33 1.7 21.66 0 22 C-1.09506492 18.71480525 -1.09960608 16.26336585 -1.0625 12.8125 C-1.05347656 11.72582031 -1.04445312 10.63914062 -1.03515625 9.51953125 C-1.02355469 8.68808594 -1.01195312 7.85664062 -1 7 C-0.34 7 0.32 7 1 7 C0.67 4.69 0.34 2.38 0 0 Z " fill="#FEF4DE" transform="translate(52,45)"/>
<path d="M0 0 C0 0.66 0 1.32 0 2 C-0.99 2.495 -0.99 2.495 -2 3 C-2.69093896 5.57951874 -2.69093896 5.57951874 -3.125 8.5625 C-3.37636719 10.08037109 -3.37636719 10.08037109 -3.6328125 11.62890625 C-3.75398438 12.41136719 -3.87515625 13.19382812 -4 14 C-4.33 14 -4.66 14 -5 14 C-5.33 11.36 -5.66 8.72 -6 6 C-6.598125 6.33 -7.19625 6.66 -7.8125 7 C-10 8 -10 8 -13 8 C-13 7.34 -13 6.68 -13 6 C-11.21118264 4.99491199 -9.41885304 3.99607264 -7.625 3 C-6.62726563 2.443125 -5.62953125 1.88625 -4.6015625 1.3125 C-2 0 -2 0 0 0 Z " fill="#FEEED2" transform="translate(93,46)"/>
<path d="M0 0 C2.375 1.5 2.375 1.5 4 3 C3.37351562 2.97679687 2.74703125 2.95359375 2.1015625 2.9296875 C1.28429687 2.91164062 0.46703125 2.89359375 -0.375 2.875 C-1.59316406 2.84019531 -1.59316406 2.84019531 -2.8359375 2.8046875 C-5.21342243 2.78629949 -5.21342243 2.78629949 -7 5 C-10.125 5.125 -10.125 5.125 -13 5 C-10.60350391 0.20700782 -4.88206777 -0.63679145 0 0 Z " fill="#ED9C54" transform="translate(76,31)"/>
<path d="M0 0 C6.89203498 1.20337119 12.06080693 3.32135086 18 7 C16.125 7.625 16.125 7.625 14 8 C13.34 7.34 12.68 6.68 12 6 C10.4840625 5.7525 10.4840625 5.7525 8.9375 5.5 C7.968125 5.335 6.99875 5.17 6 5 C5.67 4.34 5.34 3.68 5 3 C2.47266765 2.34444881 2.47266765 2.34444881 0 2 C0 1.34 0 0.68 0 0 Z " fill="#876BC1" transform="translate(83,5)"/>
<path d="M0 0 C0.66 0 1.32 0 2 0 C1.835 0.66 1.67 1.32 1.5 2 C0.64945975 7.10324152 0.8065867 11.80083754 1.625 16.875 C1.74875 17.90625 1.8725 18.9375 2 20 C1.34 20.66 0.68 21.32 0 22 C-1.03970216 17.7339205 -1.13358472 13.69499722 -1.125 9.3125 C-1.12886719 8.63638672 -1.13273437 7.96027344 -1.13671875 7.26367188 C-1.12674825 2.2534965 -1.12674825 2.2534965 0 0 Z " fill="#8464C1" transform="translate(26,45)"/>
<path d="M0 0 C0.99101043 3.10563128 0.95875336 5.05235896 0.125 8.1875 C-1.0058719 12.78739787 -1.55106675 17.28620087 -2 22 C-2.33 22 -2.66 22 -3 22 C-3.36801906 14.06714481 -2.77476512 7.4654395 0 0 Z " fill="#9B81CC" transform="translate(27,34)"/>
<path d="M0 0 C3.45925163 1.2491742 6.14693203 2.67527795 9 5 C6.625 5.125 6.625 5.125 4 5 C3.34 4.34 2.68 3.68 2 3 C1.67 4.65 1.34 6.3 1 8 C1.66 8 2.32 8 3 8 C2.67 8.99 2.34 9.98 2 11 C1.34 10.67 0.68 10.34 0 10 C0 6.7 0 3.4 0 0 Z " fill="#EC9E55" transform="translate(60,52)"/>
<path d="M0 0 C0.99 0 1.98 0 3 0 C3.33 1.65 3.66 3.3 4 5 C2.35 5.33 0.7 5.66 -1 6 C-1.625 4.125 -1.625 4.125 -2 2 C-1.34 1.34 -0.68 0.68 0 0 Z " fill="#EBDCF9" transform="translate(70,87)"/>
<path d="M0 0 C4.78006608 1.91202643 8.79772953 4.02766235 13 7 C9.98968256 7.93423645 9.13349732 8.04449911 6 7 C5.67 6.01 5.34 5.02 5 4 C2.49552484 2.78130071 2.49552484 2.78130071 0 2 C0 1.34 0 0.68 0 0 Z " fill="#F2E8FB" transform="translate(83,24)"/>
<path d="M0 0 C0.33 0 0.66 0 1 0 C1.33 4.95 1.66 9.9 2 15 C0.68 15.33 -0.64 15.66 -2 16 C-1.34 10.72 -0.68 5.44 0 0 Z " fill="#9276CC" transform="translate(35,82)"/>
<path d="M0 0 C2 3 2 3 2 5 C2.66 5.33 3.32 5.66 4 6 C-1.625 9 -1.625 9 -5 9 C-4.67 8.01 -4.34 7.02 -4 6 C-3.01 6.33 -2.02 6.66 -1 7 C-1.020625 6.030625 -1.04125 5.06125 -1.0625 4.0625 C-1 1 -1 1 0 0 Z " fill="#815EBE" transform="translate(39,90)"/>
<path d="M0 0 C1.65 0 3.3 0 5 0 C5.33 1.32 5.66 2.64 6 4 C4.35 4.33 2.7 4.66 1 5 C0.67 3.35 0.34 1.7 0 0 Z " fill="#EEDFFC" transform="translate(57,86)"/>
<path d="M0 0 C3.63 1.32 7.26 2.64 11 4 C11 4.33 11 4.66 11 5 C9.35 5 7.7 5 6 5 C5.67 5.99 5.34 6.98 5 8 C4.71125 7.360625 4.4225 6.72125 4.125 6.0625 C3.17176549 3.84793921 3.17176549 3.84793921 1 3 C0.67 2.01 0.34 1.02 0 0 Z " fill="#906CCC" transform="translate(56,76)"/>
<path d="M0 0 C4 2 4 2 4.75 4.125 C4.8325 4.74375 4.915 5.3625 5 6 C3.68 6.99 2.36 7.98 1 9 C0.67 6.03 0.34 3.06 0 0 Z " fill="#8C71C5" transform="translate(107,18)"/>
<path d="M0 0 C1.32 0 2.64 0 4 0 C4 1.65 4 3.3 4 5 C2.35 4.67 0.7 4.34 -1 4 C-0.67 2.68 -0.34 1.36 0 0 Z " fill="#F6EAFC" transform="translate(81,86)"/>
<path d="M0 0 C0.66 0.33 1.32 0.66 2 1 C1.67 1.99 1.34 2.98 1 4 C0.195625 4.12375 -0.60875 4.2475 -1.4375 4.375 C-2.7059375 4.684375 -2.7059375 4.684375 -4 5 C-4.33 5.66 -4.66 6.32 -5 7 C-5 5.68 -5 4.36 -5 3 C-2.625 1.1875 -2.625 1.1875 0 0 Z " fill="#EDA257" transform="translate(57,38)"/>
<path d="M0 0 C0.33 0 0.66 0 1 0 C1.375 2.25 1.375 2.25 1 5 C-2 7.3125 -2 7.3125 -5 9 C-3.75471468 5.55151758 -2.38532951 2.80016942 0 0 Z " fill="#8A6DC5" transform="translate(35,21)"/>
<path d="M0 0 C1.98 0.99 1.98 0.99 4 2 C3.74438677 4.3431213 3.40729228 6.67843403 3 9 C2.01 9.495 2.01 9.495 1 10 C0.875 4.25 0.875 4.25 2 2 C1.34 2 0.68 2 0 2 C0 1.34 0 0.68 0 0 Z " fill="#896BC1" transform="translate(107,73)"/>
<path d="M0 0 C1.32 0.66 2.64 1.32 4 2 C4 3.32 4 4.64 4 6 C2.02 6.66 0.04 7.32 -2 8 C-2 7.34 -2 6.68 -2 6 C-1.01 6 -0.02 6 1 6 C0.67 4.02 0.34 2.04 0 0 Z " fill="#EB9D57" transform="translate(91,39)"/>
<path d="M0 0 C0.625 1.875 0.625 1.875 1 4 C-1 6 -1 6 -4.125 6.125 C-5.548125 6.063125 -5.548125 6.063125 -7 6 C-6.21625 5.38125 -5.4325 4.7625 -4.625 4.125 C-2.03162353 2.10141339 -2.03162353 2.10141339 0 0 Z " fill="#FDEDD5" transform="translate(87,61)"/>
<path d="M0 0 C0.33 0 0.66 0 1 0 C1 3.3 1 6.6 1 10 C1.99 10.33 2.98 10.66 4 11 C2.35 11.33 0.7 11.66 -1 12 C-2.09898702 8.70303895 -1.87124444 7.59505097 -1.0625 4.3125 C-0.86785156 3.50425781 -0.67320313 2.69601563 -0.47265625 1.86328125 C-0.31667969 1.24839844 -0.16070312 0.63351563 0 0 Z " fill="#F9DFC0" transform="translate(53,55)"/>
<path d="M0 0 C0.33 0.99 0.66 1.98 1 3 C1.66 3.33 2.32 3.66 3 4 C2.01 4.33 1.02 4.66 0 5 C-0.99 6.485 -0.99 6.485 -2 8 C-3.0625 5.625 -3.0625 5.625 -4 3 C-3.67 2.34 -3.34 1.68 -3 1 C-1 2 -1 2 0 3 C0 2.01 0 1.02 0 0 Z " fill="#8A68CE" transform="translate(81,82)"/>
<path d="M0 0 C0 1.66666667 0 3.33333333 0 5 C-2.64 5.33 -5.28 5.66 -8 6 C-5.38485683 3.87961365 -2.80362384 1.86908256 0 0 Z " fill="#896AC0" transform="translate(50,9)"/>
<path d="M0 0 C1.31571603 0.2547514 2.62760376 0.52934141 3.9375 0.8125 C4.66839844 0.96332031 5.39929688 1.11414062 6.15234375 1.26953125 C6.76207031 1.51058594 7.37179688 1.75164063 8 2 C8.33 2.99 8.66 3.98 9 5 C5.22454612 3.90931332 2.52956528 3.0916909 0 0 Z " fill="#EC9850" transform="translate(60,48)"/>
</svg>
